<svg width="114" height="115" viewBox="0 0 114 115" fill="none" xmlns="http://www.w3.org/2000/svg">
<g filter="url(#filter0_d_306_953)">
<circle cx="57" cy="56" r="40" fill="white"/>
<circle cx="57" cy="56" r="39.7647" stroke="#EB6C24" stroke-opacity="0.2" stroke-width="0.470588"/>
</g>
<path d="M70.8633 41.5186C67.7383 41.5186 65.207 44.0498 65.207 47.1748C65.207 48.4639 65.6445 49.6357 66.3633 50.5889L65.832 54.2842L70.5273 52.8076C70.6445 52.8154 70.7461 52.8232 70.8633 52.8232C73.9805 52.8232 76.5117 50.292 76.5117 47.1748C76.5117 44.0498 73.9805 41.5186 70.8633 41.5186ZM70.3477 49.0811C70.1992 49.2998 69.957 49.417 69.707 49.417C69.5508 49.417 69.3945 49.3701 69.2617 49.2686C69.1992 49.2295 67.7148 48.1592 67.6914 46.5264C67.6836 46.0967 68.0273 45.7451 68.457 45.7373C68.8867 45.7217 69.2461 46.0732 69.2539 46.5029C69.2617 47.3232 70.1523 47.9873 70.1602 47.9951C70.5117 48.2451 70.5977 48.7295 70.3477 49.0811ZM69.9102 45.1982C69.457 45.1982 69.0898 44.8311 69.0898 44.3857C69.0898 43.9326 69.457 43.5654 69.9102 43.5654C70.3555 43.5654 70.7227 43.9326 70.7227 44.3857C70.7227 44.8311 70.3555 45.1982 69.9102 45.1982ZM71.6758 50.9092C71.2305 50.9092 70.8633 50.542 70.8633 50.0889C70.8633 49.6357 71.2305 49.2764 71.6758 49.2764C72.1289 49.2764 72.4961 49.6357 72.4961 50.0889C72.4961 50.542 72.1289 50.9092 71.6758 50.9092ZM73.4961 48.3545H73.4258C73.0273 48.3545 72.6914 48.0498 72.6523 47.6436C72.5898 46.9561 71.8945 46.3857 71.6289 46.2217C71.2617 46.0029 71.1445 45.5186 71.3711 45.1514C71.5898 44.7842 72.0664 44.667 72.4414 44.8857C72.5039 44.9248 74.0664 45.8779 74.207 47.5107C74.2461 47.9404 73.9258 48.3154 73.4961 48.3545Z" fill="#EB6C24"/>
<path d="M62.9719 56.0445H42.1703C41.8687 56.0445 41.6234 55.7992 41.6234 55.4977C41.6234 55.1961 41.8687 54.9508 42.1703 54.9508H59.2695C61.8656 54.9508 63.9781 52.8383 63.9781 50.2422C63.9781 47.6461 61.8656 45.5336 59.2695 45.5336H48.4445C48.1273 45.5336 47.8687 45.275 47.8687 44.9578C47.8687 44.6406 48.1273 44.382 48.4445 44.382H51.3914C53.8187 44.382 55.7937 42.407 55.7937 39.9797V38.8281H51.6586V39.9797C51.6586 40.1273 51.5383 40.2469 51.3914 40.2469H48.4445C45.8469 40.2469 43.7336 42.3602 43.7336 44.9578C43.7336 47.5555 45.8469 49.6688 48.4445 49.6688H59.2695C59.5859 49.6688 59.843 49.9266 59.843 50.2422C59.843 50.5586 59.5852 50.8156 59.2695 50.8156H42.1703C39.5883 50.8156 37.4883 52.9164 37.4883 55.4977C37.4883 58.0797 39.5891 60.1797 42.1703 60.1797H62.9711C63.2969 60.1797 63.5609 60.4445 63.5609 60.7695C63.5609 61.0945 63.2961 61.3594 62.9711 61.3594H47.7984C45.1852 61.3594 43.0594 63.4852 43.0594 66.0984C43.0594 68.7117 45.1852 70.8375 47.7984 70.8375H51.6359C51.7836 70.8375 51.9031 70.957 51.9031 71.1047V73.1703H56.0383V71.1047C56.0383 68.6773 54.0633 66.7023 51.6359 66.7023H47.7984C47.4656 66.7023 47.1945 66.4313 47.1945 66.0977C47.1945 65.7648 47.4656 65.493 47.7984 65.493H62.9719C65.5773 65.493 67.6969 63.3734 67.6969 60.768C67.6969 58.1648 65.5773 56.0445 62.9719 56.0445Z" fill="#EB6C24"/>
<defs>
<filter id="filter0_d_306_953" x="0.0588245" y="0.941177" width="113.882" height="113.882" filterUnits="userSpaceOnUse" color-interpolation-filters="sRGB">
<feFlood flood-opacity="0" result="BackgroundImageFix"/>
<feColorMatrix in="SourceAlpha" type="matrix" values="0 0 0 0 0 0 0 0 0 0 0 0 0 0 0 0 0 0 127 0" result="hardAlpha"/>
<feOffset dy="1.88235"/>
<feGaussianBlur stdDeviation="8.47059"/>
<feComposite in2="hardAlpha" operator="out"/>
<feColorMatrix type="matrix" values="0 0 0 0 0.815686 0 0 0 0 0.309804 0 0 0 0 0.117647 0 0 0 0.02 0"/>
<feBlend mode="normal" in2="BackgroundImageFix" result="effect1_dropShadow_306_953"/>
<feBlend mode="normal" in="SourceGraphic" in2="effect1_dropShadow_306_953" result="shape"/>
</filter>
</defs>
</svg>
