<svg width="18" height="18" viewBox="0 0 18 18" fill="none" xmlns="http://www.w3.org/2000/svg">
<path d="M17.094 0.90604C17.5944 1.40643 17.5944 2.21773 17.094 2.71812L11.7667 8.04541C11.2395 8.57261 11.2395 9.42739 11.7667 9.95459L17.094 15.2819C17.5944 15.7823 17.5944 16.5936 17.094 17.094C16.5936 17.5944 15.7823 17.5944 15.2819 17.094L9.95459 11.7667C9.42739 11.2395 8.57261 11.2395 8.04541 11.7667L2.71812 17.094C2.21773 17.5944 1.40643 17.5944 0.90604 17.094C0.405648 16.5936 0.405648 15.7823 0.90604 15.2819L6.23332 9.95459C6.76053 9.42739 6.76053 8.57261 6.23333 8.04541L0.90604 2.71812C0.405648 2.21773 0.405648 1.40643 0.90604 0.90604C1.40643 0.405648 2.21773 0.405648 2.71812 0.90604L8.04541 6.23332C8.57261 6.76053 9.42739 6.76053 9.95459 6.23333L15.2819 0.90604C15.7823 0.405648 16.5936 0.405648 17.094 0.90604Z" fill="#D22D2D"/>
</svg>
