<svg width="114" height="115" viewBox="0 0 114 115" fill="none" xmlns="http://www.w3.org/2000/svg">
<g filter="url(#filter0_d_306_929)">
<circle cx="57" cy="56" r="40" fill="white"/>
<circle cx="57" cy="56" r="39.7647" stroke="#EB6C24" stroke-opacity="0.2" stroke-width="0.470588"/>
</g>
<path d="M62.4235 54.0902C64.7342 55.0497 67.2139 54.9777 69.3561 54.0902C71.1581 53.3467 73.1971 53.1873 75.1752 53.7201C74.6942 47.2531 70.6032 42.2001 65.6241 42.2001C64.5 42.2001 63.4257 42.4032 62.4235 42.7579V35.7998H59.2238V48.6C59.2238 50.3126 58.8816 51.9422 58.2725 53.4345C59.6457 53.3294 61.0641 53.5281 62.4235 54.0902Z" fill="#EB6C24"/>
<path d="M75.0663 57.0468C73.6263 56.453 72.0289 56.4497 70.5793 57.0497C67.5538 58.2996 64.2231 58.2996 61.1996 57.0468C59.7557 56.453 58.1621 56.4497 56.7116 57.0497C56.3741 57.1889 56.0333 57.3074 55.6901 57.4154C53.3578 59.8654 50.0737 61.3999 46.4242 61.3999H43.2241C39.6889 61.3999 36.8242 64.266 36.8242 67.8002V74.1996H40.0244V67.7998C40.0244 66.4433 40.8759 65.2889 42.0697 64.8233C45.0226 70.398 50.8777 74.1996 57.6241 74.1996C66.7057 74.1996 74.1745 66.6948 75.1196 57.0636C75.1028 57.0574 75.0841 57.054 75.0663 57.0468ZM54.4244 69.3996C53.9823 69.3996 53.6242 69.042 53.6242 68.5994C53.6242 68.1574 53.9823 67.7998 54.4244 67.7998C54.8665 67.7998 55.2245 68.1574 55.2245 68.5994C55.2245 69.042 54.8665 69.3996 54.4244 69.3996ZM56.0242 64.5996C55.5821 64.5996 55.2241 64.242 55.2241 63.7994C55.2241 63.3574 55.5821 62.9998 56.0242 62.9998C56.4658 62.9998 56.8244 63.3574 56.8244 63.7994C56.8244 64.242 56.4663 64.5996 56.0242 64.5996ZM59.6247 69.3996C58.9618 69.3996 58.4247 68.862 58.4247 68.1996C58.4247 67.5372 58.9618 66.9996 59.6247 66.9996C60.2866 66.9996 60.8247 67.5372 60.8247 68.1996C60.8247 68.862 60.2866 69.3996 59.6247 69.3996ZM60.8247 62.9998C59.9415 62.9998 59.2244 62.2826 59.2244 61.3994C59.2244 60.5167 59.9415 59.7996 60.8247 59.7996C61.7069 59.7996 62.4241 60.5167 62.4241 61.3994C62.4241 62.2826 61.7069 62.9998 60.8247 62.9998ZM64.0244 67.7998C63.5818 67.7998 63.2247 67.4417 63.2247 66.9996C63.2247 66.5575 63.5818 66.1994 64.0244 66.1994C64.4669 66.1994 64.8241 66.5575 64.8241 66.9996C64.8241 67.4417 64.4669 67.7998 64.0244 67.7998ZM67.6244 64.5996C66.9615 64.5996 66.4244 64.062 66.4244 63.3996C66.4244 62.7372 66.9615 62.1996 67.6244 62.1996C68.2873 62.1996 68.8244 62.7372 68.8244 63.3996C68.8244 64.062 68.2873 64.5996 67.6244 64.5996Z" fill="#EB6C24"/>
<defs>
<filter id="filter0_d_306_929" x="0.0588245" y="0.941177" width="113.882" height="113.882" filterUnits="userSpaceOnUse" color-interpolation-filters="sRGB">
<feFlood flood-opacity="0" result="BackgroundImageFix"/>
<feColorMatrix in="SourceAlpha" type="matrix" values="0 0 0 0 0 0 0 0 0 0 0 0 0 0 0 0 0 0 127 0" result="hardAlpha"/>
<feOffset dy="1.88235"/>
<feGaussianBlur stdDeviation="8.47059"/>
<feComposite in2="hardAlpha" operator="out"/>
<feColorMatrix type="matrix" values="0 0 0 0 0.815686 0 0 0 0 0.309804 0 0 0 0 0.117647 0 0 0 0.02 0"/>
<feBlend mode="normal" in2="BackgroundImageFix" result="effect1_dropShadow_306_929"/>
<feBlend mode="normal" in="SourceGraphic" in2="effect1_dropShadow_306_929" result="shape"/>
</filter>
</defs>
</svg>
