<svg width="114" height="115" viewBox="0 0 114 115" fill="none" xmlns="http://www.w3.org/2000/svg">
<g filter="url(#filter0_d_306_978)">
<circle cx="57" cy="56" r="40" fill="white"/>
<circle cx="57" cy="56" r="39.7647" stroke="#EB6C24" stroke-opacity="0.2" stroke-width="0.470588"/>
</g>
<path d="M48.012 73.7438C47.9321 73.5545 47.8979 73.3788 47.8979 73.1734V68.2109C47.649 68.4641 47.3205 68.8071 46.887 69.2704L46.7343 69.4332C46.6695 69.502 46.6508 69.5493 46.6508 69.6435V74.8711C46.6508 75.6978 46.3288 76.4285 45.7196 76.984L45.4287 77.2509H46.6908C47.0924 77.2509 47.4393 77.0957 47.7039 76.7923L48.174 76.2583C48.5505 75.8294 48.644 75.2635 48.425 74.7387L48.012 73.7438Z" fill="#EB6C24"/>
<path d="M50.1194 56.7994C50.127 57.2699 50.3155 57.7075 50.65 58.0315L54.9487 62.1933C55.6377 62.8607 56.7319 62.8381 57.4401 62.1421L62.5388 57.1396L55.8282 50.1602L50.6099 55.5513C50.2859 55.8858 50.1118 56.329 50.1194 56.7994ZM53.4859 54.7879C53.7332 54.5324 54.1409 54.5257 54.3964 54.773L55.7781 56.1102L57.1163 54.7284C57.3637 54.4729 57.7713 54.4665 58.0269 54.7138C58.2824 54.9613 58.2889 55.3689 58.0415 55.6244L56.7036 57.0059L58.0861 58.3439C58.3416 58.5913 58.3483 58.999 58.101 59.2545C57.9746 59.385 57.8065 59.4507 57.6381 59.4507C57.4769 59.4507 57.3154 59.3905 57.1904 59.2694L55.8076 57.9311L54.4705 59.3118C54.3442 59.4422 54.1761 59.5077 54.0078 59.5077C53.8465 59.5077 53.685 59.4474 53.5599 59.3264C53.3044 59.0789 53.2979 58.6713 53.5453 58.4158L54.8821 57.0354L53.5008 55.6985C53.2452 55.4511 53.2385 55.0435 53.4859 54.7879Z" fill="#EB6C24"/>
<path d="M47.1087 41.972C47.4155 42.128 47.7659 42.0997 48.0459 41.896L52.2307 38.8586C52.129 36.9732 51.2344 34.75 49.0135 34.75H46.6182V41.1686C46.6182 41.5152 46.8015 41.8155 47.1087 41.972Z" fill="#EB6C24"/>
<path d="M76.0459 59.4862L72.0049 55.8856C71.4459 55.3881 70.5811 55.4383 70.0837 55.9974C69.5885 56.5541 69.6387 57.4212 70.1955 57.9186L74.2296 61.5124C75.2769 62.4456 75.6215 63.8557 75.1241 65.1655C74.6244 66.4752 73.4287 67.3012 72.0254 67.3012H69.3512L69.3501 67.3016C69.1944 65.2099 68.3385 63.1599 66.7751 61.5443L63.4323 58.0676L58.3432 63.0605C58.3178 63.0855 58.2916 63.1092 58.2656 63.1332C59.8546 62.9485 61.5136 63.3757 62.8525 64.4583L63.7403 65.1765C64.0042 65.3901 64.057 65.7719 63.861 66.049C63.6462 66.3527 63.2195 66.4117 62.9303 66.1778L62.0428 65.4598C59.9572 63.7736 56.8746 64.0999 55.1884 66.1831C53.5044 68.2641 53.8284 71.3536 55.9094 73.0375H52.7263C51.7612 73.0375 50.9717 73.827 50.9717 74.7899V76.3301C50.9717 76.8366 51.387 77.2497 51.8935 77.2497H60.7057C62.4968 77.2497 64.92 76.2616 66.5606 74.6735C67.9119 73.366 68.7778 71.7384 69.1561 70.0206L69.1573 70.021H72.0346C74.5856 70.021 76.7624 68.5219 77.6705 66.1352C78.5787 63.7508 77.9512 61.1838 76.0459 59.4862Z" fill="#EB6C24"/>
<path d="M54.1871 65.3734C54.6598 64.7893 55.2185 64.3148 55.8302 63.9524C55.1835 63.8835 54.5572 63.6064 54.0534 63.1184L49.7547 58.9566C49.1731 58.3932 48.8455 57.6345 48.8323 56.8202C48.8191 56.0056 49.122 55.2368 49.6854 54.6552L55.1625 48.9966L52.4301 40.3055L48.8034 42.9379C48.4202 43.2167 47.9698 43.3588 47.5167 43.3588C47.1788 43.3588 46.8392 43.2798 46.5247 43.1196C45.7882 42.7447 45.3306 41.9971 45.3306 41.1686V34.75H44.2609C43.889 34.75 43.5673 34.8801 43.3026 35.1425L39.9484 38.4715C39.7522 38.6678 39.5126 38.7659 39.2342 38.7659H36.8909C36.2634 38.7659 35.75 39.277 35.75 39.9045V40.8583C35.75 41.2986 35.9211 41.6774 36.252 41.9672L39.1361 44.4931C39.4829 44.7966 39.8777 44.9449 40.3386 44.9449H42.1412C42.5086 44.9449 42.8075 45.2461 42.8075 45.6112V52.2488C42.8075 52.3971 42.7869 52.5249 42.7367 52.6641L41.1988 57.0177C41.1441 57.1728 41.1212 57.3143 41.1212 57.4786V71.7829C41.1212 72.1982 40.9729 72.5541 40.6786 72.8485L39.0996 74.4275C38.7231 74.804 38.5337 75.2603 38.5337 75.792V76.2688C38.5337 76.8096 38.9741 77.25 39.5149 77.25H43.5239L44.8519 76.0315C45.1896 75.7235 45.363 75.3288 45.363 74.8701V69.6426C45.363 69.2205 45.5068 68.8577 45.7966 68.5497C46.1981 68.123 47.4896 66.722 47.8981 66.4687C48.0852 66.35 48.3156 66.382 48.4617 66.5372C49.7119 67.8555 51.3564 68.5912 52.8408 68.7137C52.9421 67.5304 53.3852 66.3643 54.1871 65.3734ZM43.2501 39.585C42.8417 39.585 42.5108 39.2519 42.5108 38.8435C42.5108 38.435 42.8417 38.1042 43.2501 38.1042C43.6586 38.1042 43.9917 38.435 43.9917 38.8435C43.9917 39.2519 43.6586 39.585 43.2501 39.585Z" fill="#EB6C24"/>
<defs>
<filter id="filter0_d_306_978" x="0.0588245" y="0.941177" width="113.882" height="113.882" filterUnits="userSpaceOnUse" color-interpolation-filters="sRGB">
<feFlood flood-opacity="0" result="BackgroundImageFix"/>
<feColorMatrix in="SourceAlpha" type="matrix" values="0 0 0 0 0 0 0 0 0 0 0 0 0 0 0 0 0 0 127 0" result="hardAlpha"/>
<feOffset dy="1.88235"/>
<feGaussianBlur stdDeviation="8.47059"/>
<feComposite in2="hardAlpha" operator="out"/>
<feColorMatrix type="matrix" values="0 0 0 0 0.815686 0 0 0 0 0.309804 0 0 0 0 0.117647 0 0 0 0.02 0"/>
<feBlend mode="normal" in2="BackgroundImageFix" result="effect1_dropShadow_306_978"/>
<feBlend mode="normal" in="SourceGraphic" in2="effect1_dropShadow_306_978" result="shape"/>
</filter>
</defs>
</svg>
