<svg width="114" height="115" viewBox="0 0 114 115" fill="none" xmlns="http://www.w3.org/2000/svg">
<g filter="url(#filter0_d_306_1006)">
<circle cx="57" cy="55.5" r="40" fill="white"/>
<circle cx="57" cy="55.5" r="39.7647" stroke="#EB6C24" stroke-opacity="0.2" stroke-width="0.470588"/>
</g>
<path d="M76.5312 53.1562C76.0479 53.1571 75.5768 53.3078 75.1828 53.5876C74.7887 53.8675 74.4912 54.2627 74.3312 54.7187H67.8984C67.8353 53.8105 67.6589 52.9137 67.3734 52.0492L71.0132 50.5413C71.108 50.5021 71.1942 50.4445 71.2667 50.3719C71.3393 50.2993 71.3969 50.2132 71.4361 50.1184C71.4753 50.0235 71.4955 49.9219 71.4955 49.8193C71.4955 49.7167 71.4752 49.615 71.4359 49.5203C71.3566 49.329 71.2045 49.177 71.0132 49.0977C70.8219 49.0185 70.6069 49.0184 70.4156 49.0976L66.7726 50.607C66.3647 49.7919 65.8569 49.0308 65.2609 48.3413L69.8085 43.7945C70.3075 44.0325 70.8746 44.0865 71.4096 43.9469C71.9445 43.8073 72.4129 43.4831 72.7319 43.0315C73.0509 42.58 73.2001 42.0302 73.1529 41.4794C73.1058 40.9285 72.8655 40.412 72.4744 40.0213C72.0833 39.6305 71.5667 39.3905 71.0158 39.3438C70.4649 39.297 69.9153 39.4465 69.4639 39.7659C69.0126 40.0852 68.6887 40.5538 68.5495 41.0889C68.4103 41.6239 68.4647 42.191 68.7031 42.6898L64.1562 47.2367C63.4667 46.6406 62.7056 46.1328 61.8906 45.7249L63.4062 42.0851C63.4856 41.8936 63.4856 41.6785 63.4063 41.487C63.3271 41.2955 63.175 41.1434 62.9835 41.064C62.7921 40.9846 62.5769 40.9846 62.3855 41.0639C62.194 41.1431 62.0418 41.2952 61.9624 41.4867L60.4546 45.1265C59.5889 44.8407 58.6908 44.6643 57.7812 44.6015V38.1687C58.3025 37.9844 58.7418 37.6218 59.0215 37.1449C59.3013 36.668 59.4034 36.1076 59.3099 35.5627C59.2164 35.0177 58.9333 34.5234 58.5106 34.167C58.0879 33.8107 57.5528 33.6152 56.9999 33.6152C56.4471 33.6152 55.912 33.8107 55.4893 34.167C55.0666 34.5234 54.7834 35.0177 54.6899 35.5627C54.5965 36.1076 54.6986 36.668 54.9784 37.1449C55.2581 37.6218 55.6974 37.9844 56.2187 38.1687V44.6015C55.3105 44.6646 54.4137 44.841 53.5492 45.1265L52.0413 41.4867C52.0021 41.3919 51.9445 41.3057 51.8719 41.2332C51.7993 41.1606 51.7132 41.1031 51.6183 41.0639C51.5235 41.0246 51.4219 41.0044 51.3193 41.0044C51.2167 41.0045 51.1151 41.0247 51.0203 41.064C50.9255 41.1033 50.8393 41.1609 50.7668 41.2335C50.6942 41.306 50.6367 41.3922 50.5975 41.487C50.5182 41.6785 50.5182 41.8936 50.5976 42.0851L52.107 45.7281C51.2919 46.1359 50.5308 46.6437 49.8413 47.2398L45.2945 42.6929C45.5329 42.1941 45.5873 41.627 45.448 41.092C45.3088 40.557 44.9849 40.0883 44.5336 39.769C44.0823 39.4497 43.5326 39.3002 42.9817 39.3469C42.4308 39.3936 41.9142 39.6336 41.5231 40.0244C41.1321 40.4152 40.8917 40.9316 40.8446 41.4825C40.7975 42.0333 40.9466 42.5831 41.2656 43.0347C41.5847 43.4862 42.053 43.8104 42.588 43.95C43.1229 44.0896 43.69 44.0357 44.189 43.7976L48.7367 48.3445C48.1406 49.034 47.6328 49.795 47.2249 50.6101L43.582 49.1007C43.3906 49.0216 43.1757 49.0216 42.9843 49.1009C42.793 49.1801 42.641 49.3321 42.5617 49.5234C42.5223 49.6182 42.5021 49.7198 42.502 49.8224C42.502 49.925 42.5222 50.0267 42.5614 50.1215C42.6007 50.2163 42.6582 50.3025 42.7308 50.375C42.8034 50.4476 42.8895 50.5052 42.9843 50.5445L46.6242 52.0523C46.3397 52.9159 46.1641 53.8116 46.1015 54.7187H39.6687C39.4844 54.1974 39.1218 53.7581 38.6449 53.4784C38.168 53.1986 37.6076 53.0965 37.0627 53.1899C36.5177 53.2834 36.0234 53.5666 35.667 53.9893C35.3107 54.412 35.1152 54.9471 35.1152 55.4999C35.1152 56.0528 35.3107 56.5879 35.667 57.0106C36.0234 57.4333 36.5177 57.7164 37.0627 57.8099C37.6076 57.9034 38.168 57.8013 38.6449 57.5215C39.1218 57.2418 39.4844 56.8025 39.6687 56.2812H46.1015C46.1646 57.1894 46.341 58.0862 46.6265 58.9507L42.9867 60.4585C42.8918 60.4978 42.8057 60.5554 42.7331 60.628C42.6606 60.7005 42.603 60.7867 42.5638 60.8815C42.5245 60.9763 42.5044 61.078 42.5044 61.1806C42.5044 61.2832 42.5247 61.3848 42.564 61.4796C42.6433 61.6709 42.7954 61.8229 42.9867 61.9021C43.178 61.9814 43.393 61.9814 43.5843 61.9023L47.2273 60.3929C47.6351 61.208 48.143 61.969 48.739 62.6585L44.1913 67.2054C43.6924 66.9674 43.1253 66.9134 42.5903 67.053C42.0554 67.1926 41.587 67.5168 41.268 67.9683C40.949 68.4199 40.7998 68.9697 40.847 69.5205C40.8941 70.0714 41.1344 70.5878 41.5255 70.9786C41.9166 71.3694 42.4332 71.6094 42.9841 71.6561C43.535 71.7029 44.0846 71.5533 44.5359 71.234C44.9873 70.9147 45.3112 70.4461 45.4504 69.911C45.5896 69.376 45.5352 68.8089 45.2968 68.3101L49.8437 63.7632C50.5332 64.3593 51.2943 64.8671 52.1093 65.2749L50.5999 68.9179C50.5606 69.0127 50.5404 69.1143 50.5404 69.2169C50.5404 69.3196 50.5605 69.4212 50.5998 69.516C50.639 69.6108 50.6966 69.697 50.7691 69.7696C50.8417 69.8421 50.9278 69.8997 51.0226 69.939C51.1174 69.9783 51.219 69.9985 51.3216 69.9986C51.4242 69.9986 51.5259 69.9784 51.6207 69.9392C51.7155 69.8999 51.8017 69.8424 51.8742 69.7698C51.9468 69.6973 52.0044 69.6111 52.0437 69.5163L53.5515 65.8765C54.4154 66.1608 55.3114 66.3361 56.2187 66.3984V72.8312C55.6974 73.0155 55.2581 73.3781 54.9784 73.855C54.6986 74.3319 54.5965 74.8923 54.6899 75.4372C54.7834 75.9822 55.0666 76.4765 55.4893 76.8328C55.912 77.1892 56.4471 77.3847 56.9999 77.3847C57.5528 77.3847 58.0879 77.1892 58.5106 76.8328C58.9333 76.4765 59.2164 75.9822 59.3099 75.4372C59.4034 74.8923 59.3013 74.3319 59.0215 73.855C58.7418 73.3781 58.3025 73.0155 57.7812 72.8312V66.3984C58.6894 66.3353 59.5862 66.1589 60.4507 65.8734L61.9585 69.5132C62.0379 69.7047 62.1901 69.8568 62.3815 69.936C62.573 70.0153 62.7882 70.0152 62.9796 69.9359C63.1711 69.8565 63.3232 69.7044 63.4024 69.5129C63.4817 69.3214 63.4816 69.1062 63.4023 68.9148L61.8929 65.2718C62.708 64.864 63.469 64.3561 64.1585 63.7601L68.7054 68.307C68.467 68.8058 68.4126 69.3728 68.5518 69.9079C68.6911 70.4429 69.015 70.9115 69.4663 71.2309C69.9176 71.5502 70.4673 71.6997 71.0182 71.653C71.569 71.6063 72.0857 71.3663 72.4768 70.9755C72.8678 70.5847 73.1082 70.0682 73.1553 69.5174C73.2024 68.9665 73.0533 68.4168 72.7342 67.9652C72.4152 67.5137 71.9468 67.1895 71.4119 67.0499C70.877 66.9102 70.3099 66.9642 69.8109 67.2023L65.2632 62.6554C65.8593 61.9659 66.3671 61.2048 66.7749 60.3898L70.4148 61.9062C70.6061 61.9854 70.8211 61.9853 71.0124 61.9061C71.2037 61.8268 71.3558 61.6748 71.4351 61.4835C71.4744 61.3887 71.4947 61.2871 71.4947 61.1845C71.4947 61.0819 71.4746 60.9802 71.4353 60.8854C71.3961 60.7906 71.3385 60.7044 71.266 60.6319C71.1934 60.5593 71.1073 60.5017 71.0124 60.4624L67.3726 58.9546C67.6587 58.0889 67.8353 57.1908 67.8984 56.2812H74.3312C74.4751 56.6852 74.7273 57.0419 75.0603 57.3123C75.3932 57.5827 75.7941 57.7564 76.2191 57.8144C76.644 57.8724 77.0768 57.8124 77.47 57.6411C77.8632 57.4698 78.2017 57.1937 78.4486 56.843C78.6955 56.4923 78.8413 56.0804 78.87 55.6525C78.8987 55.2245 78.8092 54.7969 78.6112 54.4164C78.4133 54.0359 78.1146 53.7171 77.7478 53.4948C77.381 53.2726 76.9601 53.1554 76.5312 53.1562ZM53.8749 62.5312C53.4114 62.5312 52.9583 62.3937 52.5728 62.1362C52.1874 61.8787 51.887 61.5126 51.7096 61.0844C51.5322 60.6561 51.4858 60.1848 51.5762 59.7302C51.6667 59.2756 51.8899 58.8579 52.2177 58.5302C52.5454 58.2024 52.9631 57.9792 53.4177 57.8887C53.8723 57.7983 54.3436 57.8447 54.7719 58.0221C55.2001 58.1995 55.5662 58.4999 55.8237 58.8853C56.0812 59.2708 56.2187 59.7239 56.2187 60.1874C56.2187 60.809 55.9718 61.4052 55.5322 61.8447C55.0927 62.2843 54.4965 62.5312 53.8749 62.5312ZM54.6562 54.7187C54.0381 54.7187 53.4339 54.5354 52.92 54.192C52.4061 53.8487 52.0056 53.3606 51.7691 52.7896C51.5325 52.2186 51.4707 51.5902 51.5912 50.984C51.7118 50.3778 52.0094 49.821 52.4465 49.384C52.8835 48.9469 53.4403 48.6493 54.0465 48.5287C54.6527 48.4082 55.2811 48.47 55.8521 48.7066C56.4231 48.9431 56.9112 49.3436 57.2545 49.8575C57.5979 50.3714 57.7812 50.9756 57.7812 51.5937C57.7812 52.4225 57.452 53.2173 56.8659 53.8034C56.2799 54.3895 55.485 54.7187 54.6562 54.7187ZM58.5624 56.2812C58.5624 55.6631 58.7457 55.0589 59.0891 54.545C59.4325 54.0311 59.9205 53.6306 60.4916 53.3941C61.0626 53.1575 61.6909 53.0957 62.2971 53.2162C62.9033 53.3368 63.4601 53.6344 63.8972 54.0715C64.3342 54.5085 64.6318 55.0653 64.7524 55.6715C64.873 56.2777 64.8111 56.9061 64.5746 57.4771C64.338 58.0481 63.9375 58.5362 63.4236 58.8795C62.9097 59.2229 62.3055 59.4062 61.6874 59.4062C60.8586 59.4062 60.0638 59.077 59.4777 58.4909C58.8917 57.9048 58.5624 57.11 58.5624 56.2812Z" fill="#EB6C24"/>
<path d="M54.6562 53.1562C55.5192 53.1562 56.2188 52.4567 56.2188 51.5938C56.2188 50.7308 55.5192 50.0312 54.6562 50.0312C53.7933 50.0312 53.0938 50.7308 53.0938 51.5938C53.0938 52.4567 53.7933 53.1562 54.6562 53.1562Z" fill="#EB6C24"/>
<path d="M61.6875 57.8438C62.5504 57.8438 63.25 57.1442 63.25 56.2812C63.25 55.4183 62.5504 54.7188 61.6875 54.7188C60.8246 54.7188 60.125 55.4183 60.125 56.2812C60.125 57.1442 60.8246 57.8438 61.6875 57.8438Z" fill="#EB6C24"/>
<path d="M53.875 60.9688C54.3065 60.9688 54.6562 60.619 54.6562 60.1875C54.6562 59.756 54.3065 59.4062 53.875 59.4062C53.4435 59.4062 53.0938 59.756 53.0938 60.1875C53.0938 60.619 53.4435 60.9688 53.875 60.9688Z" fill="#EB6C24"/>
<defs>
<filter id="filter0_d_306_1006" x="0.0588245" y="0.441177" width="113.882" height="113.882" filterUnits="userSpaceOnUse" color-interpolation-filters="sRGB">
<feFlood flood-opacity="0" result="BackgroundImageFix"/>
<feColorMatrix in="SourceAlpha" type="matrix" values="0 0 0 0 0 0 0 0 0 0 0 0 0 0 0 0 0 0 127 0" result="hardAlpha"/>
<feOffset dy="1.88235"/>
<feGaussianBlur stdDeviation="8.47059"/>
<feComposite in2="hardAlpha" operator="out"/>
<feColorMatrix type="matrix" values="0 0 0 0 0.815686 0 0 0 0 0.309804 0 0 0 0 0.117647 0 0 0 0.02 0"/>
<feBlend mode="normal" in2="BackgroundImageFix" result="effect1_dropShadow_306_1006"/>
<feBlend mode="normal" in="SourceGraphic" in2="effect1_dropShadow_306_1006" result="shape"/>
</filter>
</defs>
</svg>
